# xmcd
#
# Track frame offsets:
#	150
#	17297
#	36846
#	54597
#	74503
#	93006
#	112034
#	128259
#	142932
#	162918
#
# Disc length: 2384 seconds
#
# Revision: 0
# Processed by: cddbd v1.5.1PL2 Copyright (c) Steve Scherf et al.
# Submitted via: SynApp - FreeCDDB Version: 2.0
#
DISCID=76094e0a
DTITLE=SHAKIRA - ORAL FIXATION VOLUME 1
DYEAR=2005
DGENRE=Blues
TTITLE0=How Do You Do
TTITLE1=Shakira - Don't Bother
TTITLE2=Shakira - Illegal (feat. Carlos Santana)
TTITLE3=Shakira - The Day and The Time (feat. Gu
TTITLE4=Shakira - Dreams For Plans
TTITLE5=Shakira - Hey You
TTITLE6=Shakira - Your Embrace
TTITLE7=Shakira - Costume Makes The Clown
TTITLE8=Shakira - Something
TTITLE9=SHAKIRA - TIMOR
EXTD=
EXTT0=
EXTT1=
EXTT2=
EXTT3=
EXTT4=
EXTT5=
EXTT6=
EXTT7=
EXTT8=
EXTT9=
PLAYORDER=
